<svg width="13" height="14" viewBox="0 0 13 14" fill="none" xmlns="http://www.w3.org/2000/svg">
<path fill-rule="evenodd" clip-rule="evenodd" d="M6.14645 0.646447C6.34171 0.451184 6.65829 0.451184 6.85355 0.646447L10.1869 3.97978C10.3821 4.17504 10.3821 4.49162 10.1869 4.68689C9.99162 4.88215 9.67504 4.88215 9.47978 4.68689L7 2.20711V9C7 9.27614 6.77614 9.5 6.5 9.5C6.22386 9.5 6 9.27614 6 9V2.20711L3.52022 4.68689C3.32496 4.88215 3.00838 4.88215 2.81311 4.68689C2.61785 4.49162 2.61785 4.17504 2.81311 3.97978L6.14645 0.646447ZM0.5 8.5C0.776142 8.5 1 8.72386 1 9V11.6667C1 11.8877 1.0878 12.0996 1.24408 12.2559C1.40036 12.4122 1.61232 12.5 1.83333 12.5H11.1667C11.3877 12.5 11.5996 12.4122 11.7559 12.2559C11.9122 12.0996 12 11.8877 12 11.6667V9C12 8.72386 12.2239 8.5 12.5 8.5C12.7761 8.5 13 8.72386 13 9V11.6667C13 12.1529 12.8068 12.6192 12.463 12.963C12.1192 13.3068 11.6529 13.5 11.1667 13.5H1.83333C1.3471 13.5 0.880787 13.3068 0.536971 12.963C0.193154 12.6192 0 12.1529 0 11.6667V9C0 8.72386 0.223858 8.5 0.5 8.5Z" fill="#59B2FF"/>
</svg>
